Coordinates
version=1
nRows=18
nColumns=22
inDegrees=yes

Units are S.I. units (second, meters, Newtons, ...)
If the header above contains a line with 'inDegrees', this indicates whether rotational values are in degrees (yes) or radians (no).

endheader
time	pelvis_tilt	pelvis_list	pelvis_rotation	pelvis_tx	pelvis_ty	pelvis_tz	hip_flexion_r	hip_adduction_r	hip_rotation_r	knee_angle_r	ankle_angle_r	subtalar_angle_r	hip_flexion_l	hip_adduction_l	hip_rotation_l	knee_angle_l	ankle_angle_l	subtalar_angle_l	lumbar_extension	lumbar_bending	lumbar_rotation
      5.20000000	    -10.78728178	      4.32887294	    -52.17645387	      1.20605277	      0.86019680	      1.02460646	      3.16386653	     -2.45160531	     11.99071322	    -43.03481130	     -9.61554781	      8.49868146	     30.30812418	     -8.29847789	     -3.34934794	    -22.74509266	      5.93262784	      0.91284548	      2.67664948	      3.13273097	     17.35387606
      5.21000000	    -10.71425944	      4.33501501	    -51.96129653	      1.21154593	      0.86114890	      1.02640662	      4.15367111	     -2.69777224	     10.81527194	    -44.00850254	     -8.02840076	      7.74003381	     29.80095580	     -7.91549553	     -3.30127384	    -22.49783994	      6.18945871	      0.64676920	      2.58382534	      3.08345155	     16.99357676
      5.22000000	    -10.64168503	      4.30954424	    -51.70231249	      1.21692946	      0.86206331	      1.02813411	      5.09100059	     -2.90905325	      9.68147653	    -44.85716450	     -6.46115316	      6.94303782	     29.30157284	     -7.54514015	     -3.21002968	    -22.27373833	      6.43719914	      0.42129362	      2.46749231	      3.05326174	     16.58332459
      5.23000000	    -10.57926650	      4.25796123	    -51.40772569	      1.22222128	      0.86294815	      1.02983250	      5.97357065	     -3.08343658	      8.58143307	    -45.55712886	     -4.98221989	      6.15991195	     28.80959026	     -7.19565579	     -3.07919059	    -22.06054154	      6.67212317	      0.22944951	      2.34787893	      3.04494261	     16.18041201
      5.24000000	    -10.51442851	      4.16825749	    -51.08778574	      1.22738749	      0.86381664	      1.03149949	      6.79524841	     -3.21103772	      7.54146026	    -46.13435478	     -3.62906072	      5.39610233	     28.32468230	     -6.87383856	     -2.93613664	    -21.89668521	      6.90975367	      0.05412145	      2.19881053	      3.05791548	     15.74079256
      5.25000000	    -10.45913821	      4.06638790	    -50.75957862	      1.23245068	      0.86466115	      1.03317356	      7.57731688	     -3.30281735	      6.56699088	    -46.57366709	     -2.37202468	      4.75214734	     27.83668419	     -6.57222940	     -2.75274300	    -21.71876920	      7.13071716	     -0.09523705	      2.06260358	      3.08544858	     15.34227388
      5.26000000	    -10.40443522	      3.93976763	    -50.43396051	      1.23737235	      0.86548686	      1.03486295	      8.31222159	     -3.35344565	      5.65994651	    -46.88963657	     -1.18020770	      4.18825505	     27.35181348	     -6.30405027	     -2.57506615	    -21.57394520	      7.36160684	     -0.23858713	      1.91441431	      3.12738415	     14.95641859
      5.27000000	    -10.34847395	      3.80615260	    -50.11977670	      1.24215202	      0.86628405	      1.03656223	      9.02256666	     -3.37402207	      4.83408726	    -47.10005883	     -0.02664642	      3.77863028	     26.86330082	     -6.05242741	     -2.36601275	    -21.42769911	      7.58004109	     -0.35689250	      1.77049527	      3.17259629	     14.59951858
      5.28000000	    -10.29119417	      3.66316608	    -49.81231976	      1.24681254	      0.86703893	      1.03828700	      9.69786065	     -3.37048927	      4.06217314	    -47.19571271	      1.11171609	      3.55055608	     26.38945601	     -5.82561745	     -2.19612419	    -21.31972445	      7.81735749	     -0.43224048	      1.63154837	      3.22164966	     14.28347369
      5.29000000	    -10.23549606	      3.52633822	    -49.53954599	      1.25128368	      0.86775001	      1.04005522	     10.36710321	     -3.33304062	      3.39035083	    -47.19565167	      2.24012897	      3.26151911	     25.91554592	     -5.62017441	     -2.01555441	    -21.20187196	      8.04351630	     -0.55514255	      1.50749600	      3.26523978	     14.01406076
      5.30000000	    -10.17623402	      3.39077117	    -49.29403562	      1.25557213	      0.86840456	      1.04185828	     11.02099860	     -3.26093876	      2.82292628	    -47.10617866	      3.35598454	      3.11238450	     25.45897702	     -5.44004579	     -1.88762344	    -21.11809496	      8.29522492	     -0.63584700	      1.38825800	      3.30376552	     13.76409620
      5.31000000	    -10.11755736	      3.26713083	    -49.07478423	      1.25969921	      0.86900928	      1.04369953	     11.66756901	     -3.16853621	      2.33195064	    -46.92288195	      4.42500709	      3.00009046	     25.00785103	     -5.27281004	     -1.75750250	    -21.02615679	      8.53211248	     -0.72004462	      1.28900650	      3.33072117	     13.57184291
      5.32000000	    -10.05194835	      3.16547184	    -48.86859973	      1.26371640	      0.86957853	      1.04557902	     12.29708391	     -3.07777114	      1.89242414	    -46.63462736	      5.41907476	      2.87034417	     24.55186198	     -5.09470473	     -1.60595642	    -20.90183428	      8.74497578	     -0.86304129	      1.21701497	      3.33288836	     13.41585363
      5.33000000	     -9.98730469	      3.06469228	    -48.68667180	      1.26758453	      0.87010549	      1.04748743	     12.90778618	     -2.95952646	      1.53185565	    -46.26615873	      6.35918710	      2.83794884	     24.11554104	     -4.94306259	     -1.51998744	    -20.81230629	      8.97804326	     -0.95085130	      1.15020306	      3.33618135	     13.28668405
      5.34000000	     -9.92271007	      2.97232203	    -48.52336445	      1.27131699	      0.87061537	      1.04942093	     13.50046100	     -2.82616620	      1.23278359	    -45.81424260	      7.23603199	      2.82388952	     23.67873668	     -4.80037306	     -1.43531677	    -20.70693108	      9.20027529	     -1.03791392	      1.09692572	      3.33177734	     13.18021800
      5.35000000	     -9.86520776	      2.87934682	    -48.37457130	      1.27493152	      0.87111149	      1.05134531	     14.07784498	     -2.67468729	      0.97241688	    -45.29244835	      8.04137977	      2.80227830	     23.24325636	     -4.67645949	     -1.37021801	    -20.58848511	      9.41157385	     -1.12236373	      1.04928088	      3.33816386	     13.09577171
      5.36000000	     -9.81149166	      2.78345928	    -48.22278115	      1.27846949	      0.87162242	      1.05326516	     14.61082633	     -2.51372005	      0.72840929	    -44.66565436	      8.77498281	      2.73303007	     22.80337927	     -4.56074747	     -1.29503895	    -20.45246476	      9.61511245	     -1.23375643	      1.00887126	      3.34974615	     13.01270053
      5.37000000	     -9.77931384	      2.66748433	    -48.07038292	      1.28191302	      0.87214953	      1.05514697	     15.11062980	     -2.31707057	      0.50095408	    -43.95385406	      9.42904668	      2.56462536	     22.35689870	     -4.47920403	     -1.20950617	    -20.29008265	      9.81507113	     -1.37722444	      0.96577848	      3.40080136	     12.91031341
